<?xml version="1.0" encoding="UTF-8" standalone="no"?>
<svg
   xmlns:dc="http://purl.org/dc/elements/1.1/"
   xmlns:cc="http://creativecommons.org/ns#"
   xmlns:rdf="http://www.w3.org/1999/02/22-rdf-syntax-ns#"
   xmlns:svg="http://www.w3.org/2000/svg"
   xmlns="http://www.w3.org/2000/svg"
   id="SVGRoot"
   version="1.1"
   viewBox="0 0 320 180"
   height="180px"
   width="320px">
  <defs
     id="defs10" />
  <metadata
     id="metadata13">
    <rdf:RDF>
      <cc:Work
         rdf:about="">
        <dc:format>image/svg+xml</dc:format>
        <dc:type
           rdf:resource="http://purl.org/dc/dcmitype/StillImage" />
        <dc:title></dc:title>
      </cc:Work>
    </rdf:RDF>
  </metadata>
  <g
     id="layer1">
    <path
       id="path28"
       d="M 0.17857146,-3.8948312e-7 0.35714286,180.17857 319.82143,180 V 0.17857105 Z"
       style="fill:#000000;fill-opacity:1;stroke:#000000;stroke-width:1px;stroke-linecap:butt;stroke-linejoin:miter;stroke-opacity:1" />
    <path
       id="path26"
       d="M 16.785715,16.071428 C 6.0770476,-0.71709572 47.008613,-1.0935923 47.678572,4.9999997 43.603137,46.450629 68.326349,21.85964 50.077684,3.9898472 42.453346,-2.8281314 86.309521,4.4047616 101.78571,3.9285711 h 57.14286 c 30.78812,-1.2399443 33.26961,1.9708054 36.78572,1.0714286 11.13095,0.059524 27.15294,-3.9646338 32.14286,0.5357143 13.87151,0.716424 -12.1668,-5.46021523 43.57142,-1.9642857 10.34249,0.7769242 29.15918,6.6383627 30.71429,2.1428571 14.91315,-7.1316238 16.46125,5.7843076 11.42857,28.5714286 2.82224,19.807074 -7.50749,32.820085 -1.07143,29.642857 5.23289,-3.883409 5.3132,3.274428 3.92857,13.571429 -1.32006,11.33059 -5.53716,28.45527 -2.14286,30.35714 4.34645,12.09064 0.95239,40.95238 1.42858,61.42857 0.48078,2.80145 -1.59837,3.46962 -3.92858,3.92858 -34.89427,1.23161 -18.23757,-7.9653 -34.64285,-2.85715 -9.75972,6.09112 -20.71429,1.42857 -31.07143,2.14286 0,0 -53.3544,5.44484 -54.64286,1.07143 -1.34366,-4.28835 -7.86611,-5.0049 -12.5,0 -3.5595,2.20019 -7.88473,2.66835 -24.64286,1.42857 -17.85714,-0.35714 -38.22495,5.56238 -53.57142,-1.07143 -3.537634,-1.10522 -6.518109,-2.76761 -14.642861,0.71429 -18.809316,-0.35767 -34.64035,-8.16016 -56.428572,-1.07143 -2.365509,1.54397 -6.255869,-0.47005 -10,-2.14286 C 14.152324,168.81818 3.2995223,184.28062 9.6428572,141.78571 10.896241,130.76907 14.367166,116.64787 8.9285714,115 c -4.3992863,-1.3008 -3.32507,-8.7593 -4.2857142,-13.92857 0.7747274,0.0626 -3.1332288,-25.369871 3.2142857,3.21428 5.0408101,2.42969 -3.5669671,-12.720442 -2.5,-32.142853 0.1936512,-11.579099 -4.235316,-40.878235 1.0714285,-32.857143 4.3171876,3.893973 2.1972658,-6.005859 1e-7,-16.071428 7.6972295,6.182501 12.7944405,2.250495 10.3571435,-7.142858 z"
       style="fill:#ffffff;fill-opacity:1;stroke:#000000;stroke-width:1px;stroke-linecap:butt;stroke-linejoin:miter;stroke-opacity:1" />
  </g>
</svg>
